<svg width="152" height="39" viewBox="0 0 152 39" fill="none" xmlns="http://www.w3.org/2000/svg">
<path d="M45.1955 12.2729H48.8729V27.0564H45.1955V12.2729ZM50.3316 21.4745C50.3316 17.8182 52.5871 15.6367 56.0684 15.6367C59.5497 15.6367 61.8051 17.8182 61.8051 21.4745C61.8051 25.1307 59.5987 27.3245 56.0684 27.3245C52.538 27.3245 50.3316 25.1917 50.3316 21.4745ZM58.1155 21.4745C58.1155 19.4636 57.3187 18.2814 56.0684 18.2814C54.818 18.2814 54.0335 19.5001 54.0335 21.4745C54.0335 23.4489 54.8058 24.6432 56.0684 24.6432C57.331 24.6432 58.1155 23.522 58.1155 21.4867V21.4745ZM63.1903 27.7754H66.7206C66.8887 28.1465 67.1727 28.4538 67.5305 28.6515C67.8883 28.849 68.3008 28.9265 68.7064 28.8723C70.1039 28.8723 70.8393 28.1167 70.8393 27.0198V24.9723H70.7658C70.4728 25.5998 69.9973 26.1256 69.4009 26.482C68.8044 26.8382 68.1141 27.0086 67.4193 26.9711C64.7348 26.9711 62.9574 24.9357 62.9574 21.4379C62.9574 17.9401 64.649 15.7342 67.4684 15.7342C68.185 15.7063 68.893 15.8968 69.4977 16.2801C70.1024 16.6635 70.5748 17.2214 70.8516 17.8792V15.8439H74.529V26.9345C74.529 29.6036 72.1632 31.2611 68.6697 31.2611C65.4213 31.2611 63.3987 29.8107 63.1903 27.7876V27.7754ZM70.8516 21.4623C70.8516 19.6829 70.0303 18.5617 68.7309 18.5617C67.4316 18.5617 66.6348 19.6707 66.6348 21.4623C66.6348 23.2539 67.4193 24.2654 68.7309 24.2654C70.0426 24.2654 70.8516 23.2782 70.8516 21.4745V21.4623ZM75.9142 21.4623C75.9142 17.8061 78.1697 15.6245 81.651 15.6245C85.1322 15.6245 87.4 17.8061 87.4 21.4623C87.4 25.1186 85.1935 27.3123 81.651 27.3123C78.1084 27.3123 75.9142 25.1917 75.9142 21.4745V21.4623ZM83.698 21.4623C83.698 19.4514 82.9013 18.2692 81.651 18.2692C80.4006 18.2692 79.6774 19.5001 79.6774 21.4867C79.6774 23.4732 80.4497 24.6554 81.7 24.6554C82.9503 24.6554 83.698 23.522 83.698 21.4867V21.4623ZM88.7974 13.187C88.7877 12.8178 88.8886 12.4542 89.0871 12.142C89.2856 11.8299 89.5728 11.5834 89.9124 11.4338C90.2519 11.2842 90.6285 11.2382 90.9944 11.3016C91.3603 11.3651 91.699 11.5351 91.9676 11.7902C92.2363 12.0452 92.4226 12.3738 92.5031 12.7343C92.5837 13.0949 92.5547 13.471 92.4199 13.8151C92.2852 14.1592 92.0507 14.4558 91.7462 14.6673C91.4418 14.8787 91.081 14.9956 90.7097 15.0029C90.4635 15.0197 90.2165 14.9857 89.9842 14.9031C89.7518 14.8205 89.5393 14.6911 89.3597 14.5227C89.1801 14.3546 89.0374 14.1511 88.9407 13.9254C88.8439 13.6998 88.7951 13.4567 88.7974 13.2114V13.187ZM88.7974 15.8682H92.4748V27.0564H88.7974V15.8682ZM105.824 21.4623C105.824 25.1186 104.194 27.2026 101.399 27.2026C100.682 27.2483 99.9685 27.0742 99.3547 26.7037C98.7408 26.333 98.2562 25.784 97.9664 25.1307H97.8929V30.6395H94.2155V15.8439H97.8929V17.8426H97.9664C98.2427 17.1785 98.7181 16.6152 99.3278 16.2292C99.9375 15.8433 100.652 15.6534 101.374 15.6854C104.194 15.7342 105.873 17.8304 105.873 21.4867L105.824 21.4623ZM102.146 21.4623C102.146 19.6829 101.325 18.5495 100.038 18.5495C98.751 18.5495 97.9297 19.6951 97.9174 21.4623C97.9051 23.2295 98.751 24.3629 100.038 24.3629C101.325 24.3629 102.146 23.2539 102.146 21.4867V21.4623ZM112.137 15.6123C115.189 15.6123 117.04 17.0504 117.126 19.3539H113.779C113.779 18.5617 113.117 18.062 112.1 18.062C111.083 18.062 110.629 18.452 110.629 19.0248C110.629 19.5976 111.034 19.7804 111.855 19.9511L114.208 20.4264C116.452 20.9017 117.408 21.8036 117.408 23.4976C117.408 25.8132 115.287 27.3001 112.161 27.3001C109.035 27.3001 106.988 25.8132 106.829 23.5342H110.372C110.482 24.3629 111.144 24.8504 112.223 24.8504C113.301 24.8504 113.792 24.497 113.792 23.912C113.792 23.327 113.448 23.2051 112.566 23.0223L110.445 22.5714C108.251 22.1204 107.099 20.9626 107.099 19.2564C107.123 17.0626 109.097 15.6367 112.137 15.6367V15.6123ZM129.678 27.032H126.135V24.9479H126.062C125.867 25.6476 125.438 26.26 124.845 26.6836C124.251 27.1069 123.531 27.316 122.801 27.2757C122.243 27.3073 121.684 27.2193 121.162 27.0176C120.64 26.8159 120.168 26.5054 119.778 26.1067C119.388 25.7082 119.088 25.2308 118.899 24.7071C118.71 24.1834 118.636 23.6255 118.683 23.0711V15.8439H122.36V22.2301C122.36 23.5586 123.046 24.2654 124.186 24.2654C124.454 24.2659 124.718 24.2097 124.962 24.1004C125.205 23.9911 125.423 23.8312 125.6 23.6316C125.775 23.4318 125.907 23.1969 125.985 22.9427C126.062 22.6884 126.085 22.4205 126.05 22.157V15.8439H129.727L129.678 27.032ZM131.455 15.8439H135.01V18.0011H135.084C135.279 17.3106 135.699 16.7039 136.278 16.2762C136.856 15.8484 137.562 15.6234 138.283 15.6367C139.017 15.5783 139.746 15.7966 140.325 16.2482C140.904 16.6999 141.291 17.3517 141.409 18.0742H141.483C141.704 17.344 142.165 16.7083 142.792 16.267C143.417 15.8257 144.173 15.6039 144.939 15.6367C145.439 15.62 145.937 15.7081 146.4 15.8953C146.865 16.0824 147.283 16.3645 147.63 16.7231C147.977 17.0818 148.244 17.5089 148.415 17.9768C148.584 18.4447 148.654 18.943 148.617 19.4392V27.0564H144.939V20.4142C144.939 19.1954 144.388 18.6348 143.358 18.6348C143.129 18.6329 142.901 18.6799 142.691 18.7728C142.482 18.8656 142.294 19.0021 142.142 19.1731C141.99 19.3441 141.876 19.5455 141.809 19.7637C141.741 19.9821 141.723 20.2122 141.752 20.4386V27.0564H138.259V20.3654C138.259 19.2442 137.707 18.6348 136.702 18.6348C136.47 18.6349 136.24 18.6839 136.029 18.7786C135.817 18.8734 135.627 19.0118 135.474 19.1845C135.319 19.3572 135.204 19.5604 135.134 19.7809C135.065 20.0013 135.043 20.2337 135.072 20.4629V27.0564H131.394L131.455 15.8439Z" fill="#454545"/>
<path d="M34.911 12.9432C34.2872 11.525 33.4616 10.2034 32.4594 9.01883C30.978 7.2155 29.1292 5.74453 27.0348 4.70275C24.9404 3.66099 22.6478 3.07203 20.3079 2.97464C17.9681 2.87725 15.6341 3.27363 13.4594 4.13773C11.2847 5.00181 9.31879 6.314 7.69095 7.98793C6.06311 9.66184 4.81027 11.6596 4.01491 13.8496C3.21954 16.0396 2.89967 18.3723 3.07635 20.694C3.25305 23.0158 3.92228 25.274 5.04002 27.3201C6.15776 29.3662 7.69866 31.1538 9.5613 32.5651C10.7565 33.4888 12.0771 34.2396 13.4839 34.7954C15.4562 35.599 17.5672 36.0129 19.6987 36.0141C24.0986 36.0045 28.3151 34.2607 31.4242 31.1651C34.5331 28.0695 36.2807 23.8747 36.2839 19.5001C36.2871 17.2436 35.8197 15.0109 34.911 12.9432ZM19.6864 6.32538C21.6007 6.32519 23.4917 6.74115 25.2271 7.54413C24.8039 7.72593 24.359 7.85292 23.9032 7.92196C22.4036 8.13779 21.0144 8.83001 19.9429 9.89532C18.8714 10.9606 18.1752 12.3419 17.9581 13.8329C17.8628 14.6691 17.4802 15.447 16.8751 16.0354C16.2699 16.6238 15.4791 16.9865 14.6361 17.0626C13.1365 17.2784 11.7472 17.9707 10.6758 19.036C9.6043 20.1013 8.90806 21.4825 8.69098 22.9735C8.61748 23.7686 8.27628 24.5159 7.72259 25.0941C6.76726 23.0872 6.3381 20.8725 6.47505 18.6563C6.612 16.4402 7.3106 14.2944 8.50584 12.4188C9.70108 10.5432 11.3541 8.99873 13.3112 7.92907C15.2682 6.85941 17.4655 6.29936 19.6987 6.30101L19.6864 6.32538ZM9.54904 28.0313C9.69614 27.8973 9.84324 27.7754 9.99033 27.6291C11.0809 26.578 11.7809 25.1903 11.9761 23.6926C12.0553 22.8507 12.4334 22.0643 13.0426 21.4745C13.6289 20.8678 14.4179 20.4949 15.2613 20.4263C16.7609 20.2105 18.1501 19.5182 19.2216 18.4529C20.2931 17.3876 20.9894 16.0064 21.2064 14.5154C21.2595 13.6348 21.6395 12.8052 22.2729 12.1876C22.8737 11.5926 23.6702 11.2334 24.5161 11.176C25.8938 10.9876 27.1787 10.3786 28.1935 9.43321C29.3491 10.3864 30.328 11.533 31.0865 12.8213C31.0399 12.8839 30.9864 12.9411 30.9271 12.992C30.342 13.604 29.5539 13.985 28.7084 14.0645C27.2071 14.2765 25.8158 14.9676 24.7436 16.0335C23.6715 17.0995 22.9765 18.4828 22.7632 19.9754C22.6768 20.8144 22.3013 21.5979 21.7004 22.1932C21.0994 22.7885 20.31 23.1589 19.4658 23.2416C17.9617 23.4558 16.5674 24.1467 15.4897 25.2115C14.412 26.2765 13.7086 27.6585 13.4839 29.1526C13.4179 29.7482 13.2121 30.3201 12.8832 30.8223C11.6255 30.0798 10.4992 29.137 9.54904 28.0313ZM19.6864 32.7357C18.4426 32.737 17.2047 32.5647 16.009 32.2238C16.4181 31.4658 16.684 30.6396 16.7935 29.7863C16.8795 28.9492 17.2532 28.1671 17.8517 27.5721C18.4501 26.9771 19.2367 26.6055 20.0787 26.5201C21.5806 26.3067 22.9726 25.6155 24.0465 24.55C25.1203 23.4845 25.8184 22.1019 26.0361 20.6091C26.1221 19.772 26.4958 18.9899 27.0942 18.3949C27.6927 17.7999 28.4793 17.4283 29.3213 17.3429C30.4515 17.1968 31.5287 16.7784 32.4594 16.1241C32.9762 18.0716 33.0373 20.1108 32.6383 22.0854C32.2393 24.06 31.3906 25.9177 30.1574 27.5156C28.9242 29.1133 27.3394 30.4092 25.5242 31.3036C23.7092 32.1979 21.7122 32.667 19.6864 32.6748V32.7357Z" fill="#454545"/>
</svg>
