<svg width="187" height="23" viewBox="0 0 187 23" fill="none" xmlns="http://www.w3.org/2000/svg">
<path d="M93.1223 19.8211H86.8234V3.25137H93.1223V19.8211ZM87.4385 19.2158H92.5072V3.85664H87.4385V19.2158ZM101.887 19.8211H95.7145V3.25137H108.61C110.457 3.10417 112.297 3.61449 113.794 4.68948C114.439 5.2697 114.939 5.9886 115.254 6.79009C115.57 7.59159 115.693 8.45401 115.614 9.31006C115.706 10.7893 115.228 12.2482 114.274 13.3956C113.146 14.6691 111.269 15.3252 108.695 15.3482C108.047 15.3651 103.188 15.3482 101.89 15.3482L101.887 19.8211ZM96.3259 19.2158H101.272V14.7368H101.58C101.643 14.7368 107.951 14.7562 108.68 14.7368C111.078 14.7163 112.802 14.1316 113.809 12.9901C114.658 11.952 115.079 10.6382 114.99 9.30885C115.066 8.54182 114.961 7.76795 114.684 7.04727C114.406 6.32658 113.964 5.67844 113.391 5.15311C112.003 4.1727 110.304 3.7125 108.601 3.85543H96.3296L96.3259 19.2158ZM107.304 11.6258H101.23V7.11537H107.344C107.778 7.05644 108.219 7.10622 108.628 7.26007C109.036 7.41392 109.399 7.66686 109.682 7.99542C109.938 8.4154 110.059 8.90208 110.029 9.39116C110.052 9.84523 109.952 10.2972 109.739 10.701C109.448 11.047 109.07 11.3134 108.644 11.4745C108.217 11.6357 107.756 11.6861 107.304 11.621V11.6258ZM101.845 11.0205H107.304C108.312 11.0205 108.937 10.8135 109.214 10.3874C109.367 10.0777 109.436 9.73466 109.415 9.39116C109.442 9.0305 109.362 8.66986 109.186 8.35253L109.178 8.34164C108.886 7.91795 108.304 7.72063 107.344 7.72063H101.845V11.0205ZM126.84 20.0656C121.316 20.0656 118.019 18.7158 116.763 15.9401C116.557 15.404 116.418 14.8456 116.347 14.2768L116.293 13.9282H122.865L122.908 14.1824C122.959 14.4405 123.071 14.6835 123.233 14.8918C123.493 15.2005 124.359 15.7186 127.233 15.7186C130.687 15.7186 130.687 15.1218 130.687 14.801C130.687 14.2599 130.287 14.0747 127.47 13.7793L126.935 13.7297C125.874 13.6316 124.533 13.507 123.921 13.4549C118.754 12.9949 116.447 11.4152 116.447 8.33437C116.447 5.09864 120.373 3.00806 126.449 3.00806C131.406 3.00806 134.599 4.29364 135.939 6.83211C136.257 7.42258 136.471 8.06199 136.57 8.72295L136.613 9.06311H130.034L130.007 8.78953C129.981 8.57573 129.889 8.37515 129.741 8.21574C129.495 7.89132 128.718 7.35506 126.304 7.35506C123.34 7.35506 122.932 7.7279 122.932 8.12979C122.932 8.66606 123.868 8.85611 126.868 9.17206C128.12 9.27253 130.131 9.4759 130.82 9.55821C135.152 10.0206 137.085 11.5616 137.085 14.5565C137.086 17.0683 135.308 20.0656 126.84 20.0656ZM117.012 14.5335C117.073 14.9327 117.179 15.324 117.328 15.7004C118.472 18.2292 121.584 19.4603 126.84 19.4603C131.235 19.4603 136.474 18.613 136.474 14.5565C136.474 11.9018 134.764 10.5872 130.755 10.1598C130.066 10.0775 128.067 9.87537 126.818 9.77369C123.619 9.43232 122.319 9.25074 122.319 8.12979C122.319 6.97011 123.72 6.74979 126.306 6.74979C128.35 6.74979 129.67 7.11295 130.23 7.84532C130.382 8.02575 130.498 8.23384 130.569 8.45785H135.901C135.794 7.98967 135.624 7.53747 135.397 7.11295C134.166 4.78995 131.161 3.61332 126.451 3.61332C120.749 3.61332 117.064 5.46664 117.064 8.33437C117.064 11.0702 119.133 12.4211 123.977 12.8521C124.592 12.9041 125.932 13.0288 126.995 13.1281L127.534 13.1777C130.151 13.4488 131.305 13.6183 131.305 14.801C131.305 16.0745 129.812 16.3238 127.235 16.3238C124.851 16.3238 123.345 15.9716 122.763 15.278C122.584 15.0568 122.448 14.8042 122.364 14.5335H117.012ZM148.772 20.045C142.35 20.045 138.807 17.4896 138.807 12.8484V3.25137H145.022V12.8484C145.022 14.4403 146.47 15.353 148.993 15.353C151.405 15.353 152.902 14.4003 152.902 12.869V3.25137H159.053V13.3568C159.059 17.607 155.308 20.045 148.768 20.045H148.772ZM139.422 3.85664V12.8484C139.422 18.5839 145.276 19.4397 148.772 19.4397C152.387 19.4397 158.448 18.6493 158.448 13.3568V3.85664H153.527V12.869C153.527 14.7453 151.75 15.9583 149.003 15.9583C146.132 15.9583 144.417 14.7962 144.417 12.8484V3.85664H139.422ZM185.12 19.8211H179.254V12.34L175.928 19.8211H170.811L167.519 12.3545V19.8211H161.632V3.25137H169.375L173.398 12.3872L177.616 3.25137H185.128L185.12 19.8211ZM179.869 19.2158H184.505V3.85664H178.007L173.379 13.8786L168.967 3.85664H162.242V19.2158H166.899V9.442L171.205 19.2194H175.511L179.862 9.45653L179.869 19.2158ZM7.44802 3.554H1.8454V19.5184H17.327V15.2683H7.44802V3.554ZM28.6356 3.19085C21.4841 3.19085 17.7232 6.52585 17.7232 11.4224C17.7232 16.9545 21.6711 19.7605 28.6356 19.7605C36.3026 19.7605 39.5271 16.5066 39.5271 11.4224C39.5271 6.25953 35.8892 3.18843 28.6356 3.18843V3.19085ZM28.6147 7.33932C29.1015 7.33707 29.5881 7.36496 30.0713 7.42285L23.8081 13.5856C23.5117 12.926 23.3671 12.21 23.3848 11.489C23.3848 8.98443 24.6668 7.3369 28.6147 7.3369V7.33932ZM28.6356 15.6774C28.1665 15.6795 27.6978 15.6536 27.2319 15.6L33.5062 9.42627C33.7915 10.075 33.9281 10.7776 33.9061 11.4842C33.9061 13.921 32.725 15.675 28.6356 15.675V15.6774ZM50.6278 13.4985H56.394C56.3091 13.8923 56.1322 14.2611 55.8773 14.5758C54.6819 15.5341 53.1562 16.0004 51.6194 15.8772C50.8458 15.9586 50.0636 15.8755 49.3256 15.6334C48.5875 15.3914 47.9109 14.996 47.3418 14.4742C46.7587 13.6327 46.4818 12.6222 46.5556 11.6064C46.4613 10.5421 46.7624 9.48016 47.4033 8.61763C48.2091 7.72185 49.5735 7.33569 51.5788 7.33569C52.8547 7.23174 54.129 7.55416 55.1958 8.25085C55.532 8.51363 55.7833 8.8669 55.9192 9.26769H61.2671C61.2282 8.60731 61.0668 7.95951 60.791 7.35627C59.5103 4.79358 56.5331 3.26832 51.4705 3.26832C47.0674 3.26832 44.1123 4.59021 42.4798 6.58395C41.4016 8.0237 40.8481 9.77906 40.9087 11.5665C40.839 13.3944 41.3782 15.1945 42.4441 16.6931C44.057 18.751 46.9296 19.763 50.3817 19.763C52.6768 19.9204 54.9562 19.2879 56.8295 17.9738L56.9747 19.5184H61.4172V10.0618H50.6278V13.4985ZM74.0262 3.18721C66.8759 3.18721 63.1137 6.52221 63.1137 11.4188C63.1137 16.9509 67.0604 19.7569 74.0262 19.7569C81.6944 19.7569 84.9189 16.503 84.9189 11.4188C84.9189 6.25953 81.281 3.18843 74.0262 3.18843V3.18721ZM74.0065 7.33569C74.4805 7.33431 74.9541 7.36099 75.425 7.41558L69.1863 13.5578C68.8992 12.9054 68.7594 12.1997 68.7766 11.489C68.7717 8.98443 70.0586 7.3369 74.0065 7.3369V7.33569ZM74.0262 15.6738C73.5446 15.6759 73.0635 15.6483 72.5855 15.5915L78.8808 9.396C79.1769 10.0534 79.3186 10.7679 79.2954 11.4866C79.2978 13.921 78.1217 15.675 74.0262 15.675V15.6738Z" fill="#454545"/>
</svg>
