<svg width="156" height="48" viewBox="0 0 156 48" fill="none" xmlns="http://www.w3.org/2000/svg">
<path d="M23.9528 2.46143C21.1299 2.46143 18.3345 3.01859 15.7265 4.10093C13.1185 5.18339 10.7489 6.76986 8.7527 8.76986C6.75664 10.77 5.1733 13.1443 4.09297 15.7574C3.01276 18.3706 2.45669 21.1715 2.45669 23.9999C2.45669 26.8283 3.01276 29.6292 4.09297 32.2424C5.1733 34.8555 6.75664 37.2298 8.7527 39.2299C10.7489 41.2299 13.1185 42.8164 15.7265 43.8988C18.3345 44.9812 21.1299 45.5383 23.9528 45.5383V34.7691C22.5413 34.7691 21.1436 34.4906 19.8396 33.9493C18.5356 33.4081 17.3508 32.6149 16.3527 31.6149C15.3547 30.6149 14.563 29.4277 14.0229 28.1211C13.4827 26.8145 13.2047 25.4142 13.2047 23.9999C13.2047 22.5856 13.4827 21.1852 14.0229 19.8787C14.563 18.5721 15.3547 17.3849 16.3527 16.3849C17.3508 15.3849 18.5356 14.5916 19.8396 14.0505C21.1436 13.5092 22.5413 13.2307 23.9528 13.2307V2.46143Z" fill="#454545"/>
<path d="M23.9529 31.1794C27.9102 31.1794 31.1182 27.9652 31.1182 24C31.1182 20.0348 27.9102 16.8206 23.9529 16.8206C19.9955 16.8206 16.7876 20.0348 16.7876 24C16.7876 27.9652 19.9955 31.1794 23.9529 31.1794Z" fill="#454545"/>
<path d="M2.45669 24C2.45669 26.8284 3.01276 29.6293 4.09297 32.2425C5.1733 34.8556 6.75664 37.2299 8.7527 39.23C10.7489 41.23 13.1185 42.8165 15.7265 43.899C18.3345 44.9813 21.1299 45.5385 23.9528 45.5385C26.7756 45.5385 29.571 44.9813 32.179 43.899C34.787 42.8165 37.1566 41.23 39.1528 39.23C41.1489 37.2299 42.7322 34.8556 43.8125 32.2425C44.8927 29.6293 45.4488 26.8284 45.4488 24H34.7008C34.7008 25.4143 34.4228 26.8146 33.8826 28.1212C33.3425 29.4278 32.5508 30.615 31.5528 31.615C30.5547 32.615 29.3699 33.4082 28.0659 33.9494C26.7619 34.4907 25.3642 34.7692 23.9528 34.7692C22.5413 34.7692 21.1436 34.4907 19.8396 33.9494C18.5356 33.4082 17.3508 32.615 16.3527 31.615C15.3547 30.615 14.563 29.4278 14.0229 28.1212C13.4827 26.8146 13.2047 25.4143 13.2047 24H2.45669Z" fill="#454545"/>
<path d="M31.1182 23.9999C31.1182 22.0958 30.3633 20.2697 29.0196 18.9232C27.6758 17.5767 25.8533 16.8203 23.9529 16.8203C22.0525 16.8203 20.23 17.5767 18.8862 18.9232C17.5424 20.2697 16.7874 22.0958 16.7874 23.9999H23.9529H31.1182Z" fill="#454545"/>
<path d="M56.6754 15.9077H54.0056V30.7693H56.6754V15.9077Z" fill="#454545"/>
<path d="M58.4188 25.5041C58.4188 28.9435 60.792 31.0666 63.9279 31.0666C67.0639 31.0666 69.4371 28.9435 69.4371 25.5041C69.4371 22.0647 67.0639 19.9417 63.9279 19.9417C60.792 19.9417 58.4188 22.0647 58.4188 25.5041ZM61.0886 25.5041C61.0886 23.466 62.2752 22.277 63.9279 22.277C65.5807 22.277 66.7673 23.466 66.7673 25.5041C66.7673 27.5423 65.5807 28.7312 63.9279 28.7312C62.2752 28.7312 61.0886 27.5423 61.0886 25.5041Z" fill="#454545"/>
<path d="M78.9778 20.2389V21.6613H78.7659C78.1302 20.7484 77.1131 19.9417 75.2909 19.9417C72.7906 19.9417 70.5445 22.0647 70.5445 25.3343C70.5445 28.6038 72.7906 30.7269 75.2909 30.7269C77.1131 30.7269 78.1302 29.8988 78.7235 29.0709H78.9354V30.09C78.9354 32.1281 77.7488 33.0623 76.0113 33.0623C74.2738 33.0623 73.3839 32.1281 73.0236 30.9179L70.6293 31.9583C71.1802 33.5505 72.7906 35.3127 76.0537 35.3127C79.4015 35.3127 81.6052 33.5505 81.6052 30.1536V20.2389H78.9778ZM76.0961 28.434C74.4433 28.434 73.2144 27.245 73.2144 25.3343C73.2144 23.4235 74.4433 22.2346 76.0961 22.2346C77.7488 22.2346 78.9778 23.4235 78.9778 25.3343C78.9778 27.245 77.7488 28.434 76.0961 28.434Z" fill="#454545"/>
<path d="M83.3324 25.5041C83.3324 28.9435 85.7055 31.0666 88.8415 31.0666C91.9775 31.0666 94.3505 28.9435 94.3505 25.5041C94.3505 22.0647 91.9775 19.9417 88.8415 19.9417C85.7055 19.9417 83.3324 22.0647 83.3324 25.5041ZM86.0022 25.5041C86.0022 23.466 87.1888 22.277 88.8415 22.277C90.4942 22.277 91.6808 23.466 91.6808 25.5041C91.6808 27.5423 90.4942 28.7312 88.8415 28.7312C87.1888 28.7312 86.0022 27.5423 86.0022 25.5041Z" fill="#454545"/>
<path d="M96.4461 17.1816C96.4461 18.2644 97.2728 19.0074 98.3328 19.0074C99.3917 19.0074 100.218 18.2644 100.218 17.1816C100.218 16.0989 99.3917 15.3557 98.3328 15.3557C97.2728 15.3557 96.4461 16.0989 96.4461 17.1816ZM99.6668 20.2388H96.9976V30.7693H99.6668V20.2388Z" fill="#454545"/>
<path d="M102.046 35.0155H104.717V29.4106H104.928C105.521 30.2598 106.538 31.0666 108.361 31.0666C110.861 31.0666 113.107 28.9435 113.107 25.5041C113.107 22.0647 110.861 19.9417 108.361 19.9417C106.538 19.9417 105.521 20.7484 104.886 21.6614H104.674V20.2389H102.046V35.0155ZM107.555 28.7737C105.903 28.7737 104.674 27.5847 104.674 25.5041C104.674 23.4235 105.903 22.2346 107.555 22.2346C109.209 22.2346 110.437 23.4235 110.437 25.5041C110.437 27.5847 109.209 28.7737 107.555 28.7737Z" fill="#454545"/>
<path d="M114.665 23.19C114.665 25.2706 116.402 26.0349 118.605 26.4596L119.157 26.5657C120.47 26.8204 121.063 27.1389 121.063 27.8183C121.063 28.4977 120.47 29.0284 119.242 29.0284C118.012 29.0284 117.017 28.5189 116.741 26.9903L114.283 27.6272C114.644 29.8352 116.487 31.0666 119.242 31.0666C121.911 31.0666 123.649 29.814 123.649 27.606C123.649 25.3979 121.869 24.8036 119.496 24.3365L118.944 24.2303C117.843 24.018 117.249 23.7207 117.249 23.0202C117.249 22.3833 117.801 21.9798 118.818 21.9798C119.835 21.9798 120.555 22.4044 120.809 23.5509L123.225 22.8079C122.717 21.1094 121.17 19.9417 118.818 19.9417C116.317 19.9417 114.665 21.1094 114.665 23.19Z" fill="#454545"/>
<path d="M135.641 30.7692V20.2388H132.972V25.6738C132.972 27.6271 132.019 28.7735 130.387 28.7735C128.946 28.7735 128.141 27.9881 128.141 26.3957V20.2388H125.471V26.5231C125.471 29.1345 127.103 30.9391 129.561 30.9391C131.488 30.9391 132.379 30.0898 132.803 29.1982H133.014V30.7692H135.641Z" fill="#454545"/>
<path d="M138.01 20.2387V30.7692H140.68V24.4848C140.68 23.0412 141.358 22.2344 142.586 22.2344C143.647 22.2344 144.282 22.8288 144.282 23.9753V30.7692H146.952V24.4848C146.952 23.0412 147.63 22.2344 148.858 22.2344C149.918 22.2344 150.554 22.8288 150.554 23.9753V30.7692H153.224V23.8479C153.224 21.3002 151.655 20.0688 149.706 20.0688C147.99 20.0688 147.206 20.8332 146.698 21.7248H146.485C145.998 20.7271 145.129 20.0688 143.604 20.0688C142.078 20.0688 141.251 20.7482 140.85 21.555H140.637V20.2387H138.01Z" fill="#454545"/>
</svg>
