<svg width="170" height="36" viewBox="0 0 170 36" fill="none" xmlns="http://www.w3.org/2000/svg">
<path d="M25.8572 28.5107L3.75724 13.6607C1.51767 12.1559 2.27898 9.02268 5.07166 8.28588L28.56 2.07588C29.0576 1.901 29.5907 1.84422 30.1154 1.91028C30.6399 1.97634 31.1408 2.16333 31.5764 2.45572C32.0119 2.74811 32.3696 3.13748 32.6197 3.5915C32.8697 4.04552 33.0051 4.5511 33.0145 5.06628L31.6225 26.1251C31.4574 28.6247 28.0968 30.0155 25.8572 28.5107Z" fill="#454545"/>
<path d="M18.8478 32.1767L5.82799 7.374C5.53037 6.80659 5.39941 6.17012 5.44953 5.53481C5.49966 4.89949 5.72894 4.29 6.11206 3.77355C6.4952 3.25711 7.01731 2.85377 7.62083 2.60801C8.22434 2.36225 8.8858 2.28362 9.53227 2.38081L33.6612 6.0084C34.2167 6.09193 34.7439 6.30271 35.1996 6.62341C35.6551 6.94412 36.0261 7.36559 36.2819 7.85316C36.5377 8.34073 36.6711 8.88048 36.6709 9.42804C36.6708 9.97559 36.5373 10.5153 36.2814 11.0028L25.1661 32.1779C24.8676 32.7437 24.4148 33.2185 23.8574 33.5498C23.2999 33.8812 22.6596 34.0564 22.0066 34.0563C21.3536 34.0562 20.7132 33.8808 20.1559 33.5492C19.5986 33.2175 19.146 32.7427 18.8478 32.1767Z" fill="#454545"/>
<path d="M32.9554 5.90166L20.9272 4.09326L6.15942 7.99926L12.054 19.2325L25.8572 28.5109C26.1618 28.7133 26.4967 28.8683 26.8501 28.9705L32.093 18.9829L32.9554 5.90166Z" fill="#454545"/>
<path d="M93.8806 8.80087C93.8806 8.36536 94.0132 7.93963 94.2615 7.57751C94.51 7.2154 94.863 6.93316 95.2761 6.76649C95.6891 6.59983 96.1436 6.55623 96.5821 6.64119C97.0206 6.72616 97.4234 6.93588 97.7395 7.24383C98.0557 7.55178 98.2709 7.94415 98.3581 8.37129C98.4454 8.79844 98.4006 9.24119 98.2295 9.64355C98.0584 10.0459 97.7687 10.3898 97.397 10.6318C97.0252 10.8737 96.5882 11.0029 96.1411 11.0029C95.5434 10.9969 94.9721 10.763 94.5494 10.3514C94.1269 9.93969 93.8867 9.38304 93.8806 8.80087ZM94.2576 12.0792H98.0259V24.312H94.2576V12.0792Z" fill="#454545"/>
<path d="M114.299 18.1955C114.343 19.0041 114.222 19.8131 113.944 20.5761C113.665 21.3389 113.235 22.0408 112.677 22.6411C112.119 23.2414 111.445 23.7283 110.694 24.0741C109.942 24.4197 109.128 24.6172 108.297 24.6551C107.599 24.6921 106.901 24.5773 106.253 24.3192C105.606 24.061 105.026 23.6658 104.555 23.1623V29.2055H100.788V12.0791H104.555V13.2287C105.026 12.7253 105.606 12.3304 106.254 12.0724C106.901 11.8144 107.599 11.6999 108.297 11.7371C109.128 11.7749 109.942 11.9722 110.694 12.3177C111.445 12.6633 112.119 13.1501 112.677 13.7503C113.235 14.3506 113.665 15.0522 113.944 15.8152C114.222 16.578 114.343 17.3869 114.299 18.1955ZM110.532 18.1955C110.517 17.6227 110.329 17.067 109.992 16.5977C109.654 16.1285 109.182 15.7666 108.635 15.5574C108.087 15.3481 107.489 15.301 106.914 15.4216C106.339 15.5422 105.813 15.8253 105.402 16.2354C104.992 16.6456 104.715 17.1647 104.605 17.7276C104.496 18.2905 104.56 18.8724 104.788 19.4003C105.017 19.9282 105.4 20.3787 105.89 20.6955C106.38 21.0123 106.955 21.1811 107.543 21.1811C107.947 21.1989 108.35 21.1331 108.726 20.9884C109.102 20.8435 109.443 20.6229 109.725 20.341C110.007 20.059 110.225 19.7221 110.364 19.3523C110.503 18.9826 110.56 18.5883 110.532 18.1955Z" fill="#454545"/>
<path d="M125.927 20.64C125.927 23.454 123.415 24.6528 120.703 24.6528C119.607 24.7494 118.506 24.5234 117.544 24.0042C116.581 23.485 115.801 22.6964 115.303 21.7404L118.568 19.9307C118.701 20.3727 118.985 20.7568 119.373 21.0189C119.762 21.281 120.231 21.4052 120.703 21.3708C121.607 21.3708 122.058 21.1008 122.058 20.6124C122.058 19.266 115.88 19.9764 115.88 15.7428C115.88 13.0764 118.19 11.7312 120.807 11.7312C121.789 11.7011 122.761 11.9281 123.622 12.3884C124.484 12.8487 125.203 13.5255 125.704 14.3484L122.49 16.0368C122.349 15.7156 122.115 15.4419 121.816 15.2499C121.516 15.0578 121.166 14.9559 120.807 14.9568C120.154 14.9568 119.753 15.1968 119.753 15.642C119.749 17.046 125.927 16.116 125.927 20.64Z" fill="#454545"/>
<path d="M139.696 12.0791V24.3119H135.929V23.1599C135.494 23.6674 134.941 24.0672 134.316 24.3268C133.693 24.5862 133.014 24.6979 132.336 24.6527C129.8 24.6527 127.641 22.8911 127.641 19.5875V12.0791H131.408V19.0523C131.376 19.3439 131.41 19.6387 131.507 19.9162C131.605 20.1936 131.762 20.4472 131.971 20.6591C132.179 20.871 132.431 21.0361 132.711 21.1431C132.992 21.2501 133.292 21.2962 133.593 21.2783C134.974 21.2783 135.934 20.4959 135.934 18.7583V12.0791H139.696Z" fill="#454545"/>
<path d="M161.288 16.8V24.312H157.521V17.1192C157.521 15.8964 156.917 15.1128 155.713 15.1128C154.456 15.1128 153.754 15.9696 153.754 17.4132V24.312H149.986V17.1192C149.986 15.8964 149.383 15.1128 148.177 15.1128C146.922 15.1128 146.219 15.9696 146.219 17.4132V24.312H142.451V12.0792H146.225V13.2C146.615 12.7009 147.128 12.3052 147.715 12.0487C148.303 11.7924 148.948 11.6836 149.59 11.7324C150.234 11.7017 150.878 11.8342 151.454 12.1171C152.031 12.4 152.522 12.8234 152.881 13.3464C153.298 12.7993 153.851 12.3642 154.488 12.082C155.125 11.7997 155.826 11.6794 156.523 11.7324C159.406 11.7372 161.288 13.7424 161.288 16.8Z" fill="#454545"/>
<path d="M164.48 12.0037C166.025 12.0037 167.276 10.7841 167.276 9.27966C167.276 7.77525 166.025 6.55566 164.48 6.55566C162.935 6.55566 161.684 7.77525 161.684 9.27966C161.684 10.7841 162.935 12.0037 164.48 12.0037Z" fill="#454545"/>
<path d="M42.447 6.45239H46.2154V24.3121H42.447V6.45239ZM48.349 18.1957C48.3449 16.9131 48.7315 15.6583 49.4599 14.59C50.1883 13.5217 51.2258 12.6879 52.4409 12.1943C53.6562 11.7007 54.9943 11.5695 56.2861 11.8172C57.5779 12.065 58.7652 12.6805 59.6976 13.586C60.63 14.4914 61.2657 15.6459 61.524 16.9035C61.7823 18.1611 61.6518 19.465 61.149 20.6503C60.6461 21.8355 59.7936 22.8488 58.6991 23.5617C57.6047 24.2746 56.3178 24.6553 55.0012 24.6553C54.1268 24.6643 53.2593 24.5036 52.4493 24.1825C51.6395 23.8613 50.9033 23.3861 50.284 22.7848C49.6646 22.1834 49.1746 21.4678 48.8423 20.6799C48.5101 19.892 48.3425 19.0474 48.349 18.1957ZM57.8936 18.1957C57.8788 17.6423 57.697 17.1057 57.3707 16.6527C57.0445 16.1997 56.5883 15.8504 56.0593 15.6485C55.5302 15.4468 54.952 15.4013 54.3967 15.5181C53.8413 15.6347 53.3337 15.9085 52.9371 16.3047C52.5406 16.7011 52.2729 17.2024 52.1673 17.7461C52.0619 18.29 52.1232 18.8519 52.344 19.3619C52.5646 19.8718 52.9348 20.3071 53.4081 20.6132C53.8814 20.9193 54.4368 21.0826 55.0049 21.0829C55.3939 21.0937 55.7811 21.0257 56.1418 20.8835C56.5026 20.7415 56.8291 20.528 57.101 20.2567C57.3729 19.9855 57.5842 19.6623 57.7214 19.3076C57.8586 18.9527 57.919 18.5741 57.8985 18.1957H57.8936ZM76.6786 12.0757V23.6977C76.6786 27.8077 73.3883 29.5441 70.0486 29.5441C68.8732 29.6305 67.6958 29.3999 66.6458 28.8777C65.5958 28.3556 64.7137 27.5618 64.0962 26.5837L67.3101 24.7729C67.5696 25.2833 67.9829 25.7045 68.4947 25.9802C69.0066 26.2557 69.5925 26.3725 70.1743 26.3149C70.5457 26.3642 70.9236 26.3318 71.2804 26.2198C71.6371 26.1079 71.9635 25.9195 72.2355 25.6682C72.5073 25.417 72.7179 25.1096 72.8515 24.7684C72.9852 24.4274 73.0385 24.0614 73.0076 23.6977V22.5721C72.5663 23.0977 72.0047 23.5153 71.368 23.7914C70.7311 24.0675 70.0367 24.1945 69.3403 24.1621C67.6828 24.1118 66.1103 23.4351 64.956 22.2752C63.8017 21.1153 63.1562 19.5633 63.1562 17.9479C63.1562 16.3323 63.8017 14.7803 64.956 13.6204C66.1103 12.4605 67.6828 11.7838 69.3403 11.7336C70.0367 11.7011 70.7311 11.8281 71.368 12.1042C72.0047 12.3803 72.5663 12.7979 73.0076 13.3237V12.0757H76.6786ZM73.0125 17.9473C73.0374 17.3564 72.8802 16.7719 72.5613 16.2687C72.2424 15.7655 71.7762 15.3668 71.2227 15.1238C70.6694 14.8808 70.0539 14.8046 69.4557 14.905C68.8575 15.0055 68.3038 15.2779 67.8657 15.6873C67.4277 16.0967 67.1254 16.6244 66.9977 17.2024C66.87 17.7806 66.9227 18.3826 67.1491 18.9314C67.3754 19.48 67.7652 19.9502 68.2681 20.2814C68.7709 20.6126 69.3641 20.7897 69.971 20.7901C70.3668 20.8171 70.7641 20.7632 71.1372 20.6318C71.5104 20.5004 71.8511 20.2943 72.1376 20.0269C72.4241 19.7595 72.65 19.4366 72.8006 19.0791C72.9513 18.7215 73.0235 18.3371 73.0125 17.9509V17.9473ZM78.8122 18.1873C78.8082 16.9047 79.1947 15.6499 79.9232 14.5816C80.6516 13.5133 81.6891 12.6795 82.9042 12.1859C84.1194 11.6923 85.4575 11.5611 86.7494 11.8088C88.0411 12.0566 89.2283 12.6721 90.1609 13.5776C91.0933 14.483 91.7289 15.6375 91.9872 16.8951C92.2456 18.1527 92.1151 19.4566 91.6123 20.6419C91.1094 21.8271 90.2568 22.8404 89.1624 23.5533C88.068 24.2662 86.7811 24.6469 85.4644 24.6469C84.5908 24.6559 83.724 24.4954 82.9147 24.1748C82.1053 23.8543 81.3695 23.3798 80.7504 22.7793C80.1311 22.1788 79.6409 21.4643 79.3082 20.6773C78.9753 19.8903 78.8068 19.0467 78.8122 18.1957V18.1873ZM88.3569 18.1873C88.3423 17.6337 88.1605 17.0966 87.8343 16.6431C87.508 16.1897 87.0516 15.8402 86.5224 15.6381C85.993 15.436 85.4144 15.3905 84.8587 15.5073C84.303 15.6239 83.795 15.8978 83.3983 16.2943C83.0015 16.6909 82.7336 17.1926 82.6281 17.7367C82.5226 18.2807 82.5842 18.8432 82.805 19.3533C83.026 19.8635 83.3965 20.2989 83.8701 20.6051C84.3439 20.9113 84.8997 21.0745 85.4681 21.0745C85.856 21.0844 86.2417 21.0164 86.6013 20.8744C86.9609 20.7325 87.2865 20.5196 87.5578 20.2493C87.8289 19.9791 88.0399 19.6571 88.1774 19.3037C88.315 18.9503 88.3761 18.5731 88.3569 18.1957V18.1873Z" fill="#454545"/>
</svg>
