<svg width="200" height="51" viewBox="0 0 200 51" fill="none" xmlns="http://www.w3.org/2000/svg">
<path d="M37.0675 21.5159C40.9178 21.5159 41.784 23.1709 41.784 25.2352C41.784 27.4234 40.7362 28.991 37.0834 28.991C33.454 28.991 32.4049 27.5144 32.4049 25.2352C32.4049 22.9924 33.5485 21.5159 37.0675 21.5159Z" fill="#454545"/>
<path d="M77.3055 21.5159C81.1558 21.5159 82.0221 23.1709 82.0221 25.2352C82.0221 27.4234 80.973 28.991 77.3215 28.991C73.6933 28.991 72.6429 27.5144 72.6429 25.2352C72.6429 22.9924 73.7865 21.5159 77.3055 21.5159Z" fill="#454545"/>
<path fill-rule="evenodd" clip-rule="evenodd" d="M2.97763 46.75V3.69995H197.552V46.75H2.97763ZM95.7114 44.3214H195.098V6.12852H95.7114V44.3214ZM37.0859 32.6558C43.9215 32.6558 46.7951 29.7379 46.7951 25.1807C46.7951 20.5494 43.5583 17.7966 37.0859 17.7966C30.7129 17.7966 27.3583 20.7862 27.3583 25.1807C27.3583 30.1398 30.8773 32.6558 37.0859 32.6558ZM13.3203 18.1245V32.4372H27.1166V28.6256H18.3117V18.1245H13.3203ZM62.2356 32.4372L62.1068 31.0505C60.4369 32.2298 58.4045 32.7974 56.3583 32.6558C53.2822 32.6558 50.7203 31.7439 49.2834 29.903C48.3357 28.559 47.8572 26.9457 47.9203 25.3082C47.8664 23.7049 48.3615 22.1307 49.3252 20.8408C50.7792 19.0546 53.4147 17.8695 57.3387 17.8695C61.8528 17.8695 64.5055 19.2367 65.6466 21.5342C65.8915 22.0753 66.0355 22.6557 66.0712 23.2475H61.2957C61.1754 22.8879 60.9514 22.5709 60.6515 22.3356C59.7003 21.7115 58.5643 21.4228 57.427 21.516C56.7599 21.4359 56.0831 21.4969 55.4416 21.6949C54.8001 21.893 54.2084 22.2235 53.7055 22.6647C53.1345 23.4382 52.8664 24.3904 52.9509 25.3446C52.8847 26.2549 53.1312 27.1608 53.6503 27.9152C54.1577 28.3831 54.7609 28.7374 55.4188 28.9545C56.0768 29.1715 56.7741 29.2462 57.4638 29.1732C58.8335 29.2835 60.1934 28.8654 61.2589 28.0063C61.4877 27.7231 61.6455 27.3902 61.719 27.0349H56.5804V23.9591H66.1963V32.4372H62.2356ZM77.3239 32.6558C84.1583 32.6558 87.0331 29.7379 87.0331 25.1807C87.0331 20.5494 83.7913 17.7966 77.3239 17.7966C70.9509 17.7966 67.5963 20.7862 67.5963 25.1807C67.5963 30.1398 71.1153 32.6558 77.3239 32.6558Z" fill="#454545"/>
<path d="M104.119 32.3826V18.0698H107.677V32.3826H104.119Z" fill="#454545"/>
<path d="M125.95 26.4022C125.048 27.5691 123.496 28.1022 121.308 28.1156C120.847 28.1156 114.73 28.0973 114.73 28.0973V32.3826H111.248V18.0698H121.309C122.116 17.9854 122.931 18.07 123.702 18.3181C124.474 18.5663 125.183 18.9724 125.785 19.5099C126.58 20.535 126.967 21.8132 126.872 23.1018C126.953 24.2738 126.628 25.4382 125.95 26.4022ZM123.094 21.7357C122.726 21.1893 121.933 20.8857 120.589 20.8857H114.712V25.2426H120.551C121.988 25.2426 122.745 24.9511 123.094 24.3853C123.302 23.9866 123.391 23.5377 123.352 23.0908C123.383 22.6248 123.294 22.1586 123.094 21.7357Z" fill="#454545"/>
<path d="M137.134 32.6012C130.574 32.6012 128.567 30.1727 128.567 27.7696H132.288C132.288 28.9547 133.928 29.8485 137.299 29.8485C140.652 29.8485 141.536 29.2644 141.536 28.316C141.536 27.2584 140.874 26.9305 137.76 26.5845C137.146 26.5298 135.476 26.3295 134.849 26.2384C130.432 25.7454 128.731 24.451 128.731 22.1353C128.731 19.6922 131.22 17.8513 136.617 17.8513C142.476 17.8513 144.724 20.1305 144.724 22.5008H141.043C141.043 21.2975 139.661 20.6041 136.4 20.6041C133.047 20.6041 132.329 21.0595 132.329 21.9532C132.329 22.8833 133.065 23.1747 136.623 23.5937C137.434 23.7042 139.239 23.9045 139.736 23.958C143.496 24.3405 145.19 25.6895 145.19 28.078C145.184 30.9231 142.605 32.6012 137.134 32.6012Z" fill="#454545"/>
<path d="M155.669 32.583C150.861 32.583 147.729 30.7045 147.729 26.7544V18.0698H151.247V26.803C151.247 28.6086 152.74 29.8108 155.816 29.8108C158.598 29.8108 160.256 28.6815 160.256 26.803V18.0698H163.739V27.0786C163.739 30.6693 160.827 32.583 155.669 32.583Z" fill="#454545"/>
<path d="M182.806 32.3826V22.8286L178.292 32.3826H174.866L170.481 22.8286V32.3826H167.168V18.0698H171.656L176.631 28.9729L181.715 18.0698H186.132V32.3826H182.806Z" fill="#454545"/>
</svg>
