<svg width="21" height="20" viewBox="0 0 21 20" fill="none" xmlns="http://www.w3.org/2000/svg">
<g clip-path="url(#clip0_7_945)">
<path d="M7.46457 10.5918C6.30457 10.5918 5.36374 11.5079 5.36374 12.6374V17.7543C5.36374 18.8838 6.30457 19.7999 7.46457 19.7999C8.62457 19.7999 9.5654 18.8838 9.5654 17.7543V12.6374C9.56457 11.5079 8.62374 10.5918 7.46457 10.5918Z" fill="white"/>
<path d="M0.111542 12.6371C0.111542 13.7674 1.05321 14.6843 2.21404 14.6843C3.37487 14.6843 4.31654 13.7674 4.31654 12.6371V10.5898H2.21571C2.21487 10.5898 2.21487 10.5898 2.21404 10.5898C1.05321 10.5898 0.111542 11.5068 0.111542 12.6371Z" fill="white"/>
<path d="M7.46715 0.325195C7.46632 0.325195 7.46548 0.325195 7.46465 0.325195C6.30382 0.325195 5.36215 1.24212 5.36215 2.37244C5.36215 3.50277 6.30382 4.41969 7.46465 4.41969H9.56548V2.37244C9.56548 2.37163 9.56548 2.37001 9.56548 2.36839C9.56465 1.23968 8.62548 0.325195 7.46715 0.325195Z" fill="white"/>
<path d="M2.19964 9.55152H7.46464C8.62547 9.55152 9.56714 8.6346 9.56714 7.50428C9.56714 6.37395 8.62547 5.45703 7.46464 5.45703H2.19964C1.0388 5.45703 0.0971375 6.37395 0.0971375 7.50428C0.0971375 8.6346 1.0388 9.55152 2.19964 9.55152Z" fill="white"/>
<path d="M17.9763 5.45703C16.8171 5.45703 15.878 6.37152 15.878 7.50022V7.50428V9.55153H17.9788C19.1396 9.55153 20.0813 8.63461 20.0813 7.50428C20.0813 6.37395 19.1396 5.45703 17.9788 5.45703C17.978 5.45703 17.9771 5.45703 17.9763 5.45703Z" fill="white"/>
<path d="M10.6296 2.37277V7.50509C10.6296 8.63461 11.5704 9.55072 12.7304 9.55072C13.8904 9.55072 14.8312 8.63461 14.8312 7.50509V2.37277C14.8312 1.24326 13.8904 0.327148 12.7304 0.327148C11.5704 0.327148 10.6296 1.24326 10.6296 2.37277Z" fill="white"/>
<path d="M14.8304 17.7527C14.8304 16.6231 13.8896 15.707 12.7296 15.707H10.6288V17.7543C10.6296 18.883 11.5696 19.7983 12.7296 19.7983C13.8896 19.7983 14.8304 18.8822 14.8304 17.7527Z" fill="white"/>
<path d="M17.9947 10.5898H12.7296C11.5688 10.5898 10.6271 11.5068 10.6271 12.6371C10.6271 13.7674 11.5688 14.6843 12.7296 14.6843H17.9947C19.1555 14.6843 20.0972 13.7674 20.0972 12.6371C20.0972 11.5068 19.1555 10.5898 17.9947 10.5898Z" fill="white"/>
</g>
<defs>
<clipPath id="clip0_7_945">
<rect width="20" height="19.4744" fill="white" transform="translate(0.095459 0.326172)"/>
</clipPath>
</defs>
</svg>
