<svg width="28" height="28" viewBox="0 0 28 28" fill="none" xmlns="http://www.w3.org/2000/svg">
<path d="M27.4205 8.67262C27.4054 7.56641 27.1927 6.47119 26.792 5.43597C26.4445 4.56276 25.9138 3.76974 25.2337 3.10756C24.5537 2.44538 23.7393 1.92861 22.8425 1.59026C21.793 1.20665 20.6842 0.999224 19.5635 0.976816C18.1205 0.914011 17.663 0.896484 14 0.896484C10.337 0.896484 9.86748 0.896484 8.43498 0.976816C7.31472 0.999388 6.20651 1.20681 5.15748 1.59026C4.26057 1.92837 3.44602 2.44506 2.76593 3.10727C2.08585 3.76948 1.55522 4.56263 1.20798 5.43597C0.81323 6.45711 0.600668 7.53645 0.579483 8.62734C0.514983 10.0339 0.495483 10.4794 0.495483 14.0461C0.495483 17.6128 0.495483 18.0685 0.579483 19.4649C0.601983 20.5574 0.813483 21.6353 1.20798 22.6591C1.5558 23.5322 2.08683 24.3251 2.76714 24.987C3.44745 25.6489 4.26208 26.1654 5.15898 26.5034C6.20513 26.9024 7.31354 27.1247 8.43648 27.1607C9.88098 27.2235 10.3385 27.2424 14.0015 27.2424C17.6645 27.2424 18.134 27.2424 19.5665 27.1607C20.6872 27.1392 21.796 26.9322 22.8455 26.5487C23.742 26.2099 24.5562 25.693 25.2362 25.0309C25.9162 24.3688 26.4471 23.5759 26.795 22.703C27.1895 21.6806 27.401 20.6026 27.4235 19.5087C27.488 18.1036 27.5075 17.6581 27.5075 14.0899C27.5045 10.5232 27.5045 10.0704 27.4205 8.67262ZM13.991 20.7911C10.16 20.7911 7.05648 17.7691 7.05648 14.0388C7.05648 10.3085 10.16 7.28653 13.991 7.28653C15.8301 7.28653 17.5939 7.99792 18.8944 9.26422C20.1949 10.5305 20.9255 12.248 20.9255 14.0388C20.9255 15.8296 20.1949 17.5471 18.8944 18.8134C17.5939 20.0797 15.8301 20.7911 13.991 20.7911ZM21.2015 8.61127C20.306 8.61127 19.5845 7.90727 19.5845 7.03677C19.5845 6.8301 19.6263 6.62545 19.7075 6.43451C19.7887 6.24357 19.9078 6.07008 20.0579 5.92394C20.208 5.7778 20.3861 5.66188 20.5822 5.58279C20.7783 5.5037 20.9885 5.46299 21.2007 5.46299C21.413 5.46299 21.6232 5.5037 21.8192 5.58279C22.0153 5.66188 22.1935 5.7778 22.3436 5.92394C22.4937 6.07008 22.6127 6.24357 22.694 6.43451C22.7752 6.62545 22.817 6.8301 22.817 7.03677C22.817 7.90727 22.094 8.61127 21.2015 8.61127Z" fill="#FDFDFD"/>
</svg>
