<svg width="36" height="36" viewBox="0 0 36 36" fill="none" xmlns="http://www.w3.org/2000/svg">
<path fill-rule="evenodd" clip-rule="evenodd" d="M1.5 4.68846C1.5 3.97647 1.79047 3.29365 2.30751 2.7902C2.82454 2.28675 3.5258 2.00391 4.257 2.00391H31.74C32.1024 2.00333 32.4613 2.07236 32.7962 2.20703C33.1311 2.3417 33.4355 2.53937 33.6919 2.78873C33.9482 3.03809 34.1516 3.33424 34.2903 3.66022C34.4289 3.9862 34.5002 4.33562 34.5 4.68846V31.4492C34.5004 31.8021 34.4293 32.1517 34.2909 32.4778C34.1524 32.8039 33.9492 33.1003 33.693 33.3499C33.4368 33.5995 33.1326 33.7975 32.7977 33.9325C32.4628 34.0675 32.1039 34.1369 31.7415 34.1367H4.257C3.89482 34.1367 3.53619 34.0672 3.2016 33.9322C2.867 33.7972 2.56301 33.5993 2.30698 33.3499C2.05095 33.1005 1.8479 32.8043 1.70943 32.4785C1.57097 32.1526 1.4998 31.8033 1.5 31.4507V4.68846ZM14.562 14.2553H19.0305V16.4403C19.6755 15.1842 21.3255 14.0537 23.805 14.0537C28.5585 14.0537 29.685 16.5557 29.685 21.1463V29.6498H24.8745V22.1921C24.8745 19.5776 24.2295 18.1024 22.5915 18.1024C20.319 18.1024 19.374 19.693 19.374 22.1921V29.6498H14.562V14.2553ZM6.312 29.4497H11.124V14.0537H6.312V29.4482V29.4497ZM11.8125 9.03223C11.8216 9.43341 11.7483 9.83231 11.5969 10.2055C11.4455 10.5788 11.219 10.9188 10.9308 11.2056C10.6427 11.4925 10.2985 11.7204 9.91868 11.876C9.53882 12.0316 9.13086 12.1117 8.71875 12.1117C8.30664 12.1117 7.89868 12.0316 7.51882 11.876C7.13895 11.7204 6.79483 11.4925 6.50665 11.2056C6.21847 10.9188 5.99204 10.5788 5.84064 10.2055C5.68924 9.83231 5.61593 9.43341 5.625 9.03223C5.64281 8.24476 5.97658 7.49539 6.55483 6.9446C7.13308 6.3938 7.90984 6.08538 8.71875 6.08538C9.52767 6.08538 10.3044 6.3938 10.8827 6.9446C11.4609 7.49539 11.7947 8.24476 11.8125 9.03223Z" fill="#FDFDFD"/>
</svg>
