<svg width="36" height="36" viewBox="0 0 36 36" fill="none" xmlns="http://www.w3.org/2000/svg">
<path d="M35.4645 7.75363C34.212 8.29405 32.8665 8.65919 31.452 8.82424C32.9115 7.97388 34.0034 6.63551 34.524 5.05886C33.1528 5.85194 31.652 6.41018 30.087 6.70932C29.0346 5.61515 27.6406 4.88991 26.1215 4.64621C24.6024 4.40251 23.0432 4.65398 21.6859 5.36157C20.3286 6.06917 19.2492 7.1933 18.6152 8.55944C17.9813 9.92558 17.8283 11.4573 18.18 12.9168C15.4015 12.7809 12.6835 12.0778 10.2022 10.8528C7.72085 9.62794 5.53178 7.90869 3.77702 5.80668C3.17702 6.81448 2.83202 7.98294 2.83202 9.22736C2.83135 10.3476 3.11467 11.4507 3.65684 12.4388C4.199 13.4269 4.98326 14.2693 5.94002 14.8915C4.83043 14.8571 3.74533 14.5652 2.77502 14.04V14.1276C2.77491 15.6988 3.33307 17.2217 4.35479 18.4378C5.37652 19.6539 6.79887 20.4883 8.38052 20.7995C7.35119 21.0708 6.27202 21.1107 5.22452 20.9164C5.67076 22.2683 6.54001 23.4505 7.71057 24.2975C8.88113 25.1445 10.2944 25.6139 11.7525 25.6399C9.27727 27.532 6.22035 28.5583 3.07352 28.5538C2.51609 28.5539 1.95913 28.5222 1.40552 28.4588C4.59973 30.4586 8.31803 31.5199 12.1155 31.5158C24.9705 31.5158 31.998 21.1486 31.998 12.1573C31.998 11.8652 31.9905 11.5701 31.977 11.278C33.344 10.3155 34.5239 9.12351 35.4615 7.75801L35.4645 7.75363Z" fill="#FDFDFD"/>
</svg>
